<svg width="37" height="39" viewBox="0 0 37 39" fill="none" xmlns="http://www.w3.org/2000/svg">
<path d="M13.2344 35.5176C13.8584 37.5261 15.7944 38.9997 18.1094 38.9997C20.4257 38.9997 22.3604 37.5261 22.9844 35.5176H13.2344Z" fill="#FF822D"/>
<path d="M18.1083 6.3375C17.1472 6.3375 16.3672 5.5575 16.3672 4.59643V1.74107C16.3672 1.27931 16.5506 0.836462 16.8771 0.509948C17.2036 0.183434 17.6465 0 18.1083 0C18.57 0 19.0129 0.183434 19.3394 0.509948C19.6659 0.836462 19.8493 1.27931 19.8493 1.74107V4.59643C19.8493 5.5575 19.0693 6.3375 18.1083 6.3375Z" fill="#FFB02E"/>
<path d="M34.2643 29.0308C32.9272 27.9541 32.1193 26.3467 31.785 24.6433L29.3754 12.2468C28.3029 6.7548 23.595 2.79908 18.1072 2.78516C12.6193 2.79908 7.91146 6.7548 6.83896 12.2468L4.42932 24.6433C4.09503 26.3467 3.28718 27.9541 1.95003 29.0308C1.33853 29.5263 0.845928 30.1527 0.508463 30.8638C0.170998 31.5749 -0.00274013 32.3526 3.26747e-05 33.1397V34.8585C3.26747e-05 35.6134 0.598961 36.2137 1.32325 36.2137H34.8911C35.6293 36.2137 36.2143 35.6134 36.2143 34.8585V33.1397C36.2143 31.4627 35.4482 29.9946 34.2643 29.0308Z" fill="#F9C23C"/>
</svg>
