<svg width="265" height="215" viewBox="0 0 265 215" fill="none" xmlns="http://www.w3.org/2000/svg">
<path d="M177.367 16.0137L182.452 21.5558L159.436 40.9728L156.046 37.278L177.367 16.0137Z" fill="#FF961B"/>
<path fill-rule="evenodd" clip-rule="evenodd" d="M1.83649 83.8602C0.822224 73.5718 8.34039 64.4092 18.6288 63.395L130.401 52.376C140.69 51.3618 149.852 58.8799 150.867 69.1683L156.395 125.241C155.781 125.178 155.152 125.176 154.514 125.238L96.7641 130.932L95.8458 121.617C95.3387 116.473 90.7574 112.714 85.6132 113.221C80.469 113.728 76.7099 118.309 77.2171 123.454L79.0536 142.082C79.4973 146.584 83.0607 150.025 87.391 150.474C87.7369 150.51 88.0876 150.527 88.442 150.524C88.7215 150.522 89.0034 150.507 89.2869 150.479L139.587 145.52C147.957 145.636 157.82 150.307 160.049 162.312L158.212 143.683L156.434 143.859C157.042 143.793 157.631 143.671 158.194 143.497L161.886 180.941C162.9 191.229 155.382 200.392 145.093 201.406L33.3207 212.425C23.0323 213.439 13.8697 205.921 12.8554 195.633L1.83649 83.8602ZM156.376 125.054L137.747 126.891C149.754 124.662 154.424 114.797 154.54 106.426L156.376 125.054ZM96.7641 130.932L106.079 130.013C99.8689 130.625 96.6694 124.671 95.8458 121.617L96.7641 130.932Z" fill="#FF961B"/>
<path fill-rule="evenodd" clip-rule="evenodd" d="M106.784 129.795L106.784 129.795C107.675 130.028 108.652 130.116 109.716 130.011L141.399 126.889C148.578 125.558 153.135 121.498 155.665 116.66C153.135 121.498 148.578 125.558 141.399 126.89L109.716 130.011C108.652 130.116 107.675 130.028 106.784 129.795ZM104.695 145.553L106.289 133.528C107.453 133.783 108.718 133.871 110.084 133.737L141.925 130.599L142.082 130.57C156.359 127.922 161.812 116.058 161.943 106.477L161.946 106.268L158.251 68.804C157.034 56.4589 146.034 47.4378 133.682 48.6549L119.207 50.0812C123.027 44.2502 129.968 40.795 137.344 41.7717L248.733 56.5233C258.986 57.8811 266.197 67.2894 264.838 77.5373L261.147 105.378C259.124 113.5 252.325 122.035 240.124 121.468L189.998 114.829C184.872 114.151 180.165 117.754 179.486 122.878C178.807 128.002 182.412 132.706 187.539 133.385L237.665 140.023C245.791 142.043 254.334 148.837 253.77 161.03L250.079 188.87C248.721 199.118 239.307 206.325 229.054 204.967L164.736 196.449C168.092 192.082 169.858 186.48 169.275 180.568L167.422 161.782L167.393 161.625C164.743 147.355 152.873 141.906 143.288 141.774L143.078 141.771L104.695 145.553ZM160.298 195.861L160.297 195.861C160.757 195.391 161.192 194.897 161.6 194.381C161.192 194.897 160.758 195.391 160.298 195.861ZM258.688 123.926L257.553 123.776C257.938 123.827 258.313 123.9 258.679 123.995L258.688 123.926ZM256.238 142.413L256.229 142.482L255.117 142.334C255.493 142.383 255.867 142.409 256.238 142.413ZM163.71 162.308L163.71 162.308L163.71 162.308L163.71 162.308Z" fill="#80BAFF"/>
<path d="M156.93 0L164.012 2.53366L152.697 30.4393L147.975 28.7501L156.93 0Z" fill="#FF961B"/>
<path d="M132.906 4.32812L140.353 3.26976L143.345 33.233L138.381 33.9386L132.906 4.32812Z" fill="#FF961B"/>
<path d="M55.9182 198.565L54.1827 179.495C54.0991 178.576 53.2862 177.899 52.3671 177.983L25.9993 180.382C25.0802 180.466 24.403 181.279 24.4866 182.198L26.2221 201.268C26.3058 202.187 27.1187 202.864 28.0377 202.781L54.4055 200.381C55.3246 200.297 56.0019 199.485 55.9182 198.565Z" fill="#EEC85F"/>
<path fill-rule="evenodd" clip-rule="evenodd" d="M45.7159 201.084L43.5781 178.861L44.5531 178.776L46.6909 201L45.7159 201.084Z" fill="#DE7517"/>
<path fill-rule="evenodd" clip-rule="evenodd" d="M35.7931 202.122L33.7266 179.588L34.6691 179.503L36.7356 202.037L35.7931 202.122Z" fill="#DE7517"/>
<path fill-rule="evenodd" clip-rule="evenodd" d="M54.7868 185.794L45.0138 186.662L44.9297 185.767L54.7027 184.898L54.7868 185.794Z" fill="#DE7517"/>
<path fill-rule="evenodd" clip-rule="evenodd" d="M55.5121 193.215L45.4305 194.236L45.3438 193.182L55.4253 192.161L55.5121 193.215Z" fill="#DE7517"/>
<path fill-rule="evenodd" clip-rule="evenodd" d="M34.9652 187.558L24.8834 188.426L24.7969 187.53L34.8787 186.662L34.9652 187.558Z" fill="#DE7517"/>
<path fill-rule="evenodd" clip-rule="evenodd" d="M35.4899 194.985L25.7159 196L25.6328 194.94L35.4068 193.925L35.4899 194.985Z" fill="#DE7517"/>
<path d="M158.18 67.3887L264.113 83.4919L261.8 100.18L160.038 86.0759L158.18 67.3887Z" fill="#252542"/>
</svg>
