<svg width="80" height="80" viewBox="0 0 80 80" fill="none" xmlns="http://www.w3.org/2000/svg">
<path fill-rule="evenodd" clip-rule="evenodd" d="M40 8C31.5131 8 23.3738 11.3714 17.3726 17.3726C11.3714 23.3737 8.00001 31.5131 8.00001 40C8.00001 46.552 9.12001 52.832 11.184 58.668C11.3764 59.167 11.4668 59.6996 11.4498 60.2341C11.4328 60.7687 11.3088 61.2944 11.085 61.7802C10.8613 62.266 10.5424 62.702 10.1472 63.0624C9.75207 63.4228 9.28864 63.7003 8.78435 63.8785C8.28006 64.0567 7.74517 64.1319 7.2113 64.0997C6.67742 64.0676 6.15543 63.9287 5.67617 63.6913C5.19692 63.4538 4.77015 63.1227 4.4211 62.7175C4.07205 62.3122 3.80781 61.8411 3.64401 61.332C1.22724 54.4797 -0.00504332 47.266 1.55127e-05 40C1.55127e-05 17.908 17.908 0 40 0C62.092 0 80 17.908 80 40C80 44.2435 78.3143 48.3131 75.3137 51.3137C72.3131 54.3143 68.2435 56 64 56C60.2586 56.0005 56.6384 54.6732 53.7839 52.2546C50.9294 49.8359 49.0258 46.4827 48.412 42.792L47.7 38.52C47.3968 36.6973 46.4563 35.0414 45.0462 33.8473C43.636 32.6533 41.8478 31.9986 40 32C37.8783 32 35.8434 32.8428 34.3432 34.3431C32.8429 35.8434 32 37.8783 32 40C31.9977 46.6415 34.062 53.1191 37.9065 58.5348C41.7511 63.9504 47.1854 68.0356 53.456 70.224C53.9603 70.3904 54.4265 70.6555 54.8272 71.004C55.228 71.3524 55.5554 71.7771 55.7902 72.2534C56.0251 72.7297 56.1628 73.248 56.1953 73.7781C56.2277 74.3082 56.1543 74.8394 55.9793 75.3408C55.8043 75.8422 55.5312 76.3037 55.1759 76.6984C54.8207 77.0931 54.3904 77.4132 53.9101 77.6399C53.4299 77.8665 52.9093 77.9953 52.3788 78.0187C51.8482 78.0421 51.3183 77.9596 50.82 77.776C42.9824 75.0407 36.1899 69.9348 31.3843 63.1661C26.5787 56.3974 23.998 48.3012 24 40C24 35.7565 25.6857 31.6869 28.6863 28.6863C31.6869 25.6857 35.7565 24 40 24C43.7414 23.9995 47.3616 25.3267 50.2161 27.7454C53.0706 30.1641 54.9742 33.5173 55.588 37.208L56.3 41.48C56.928 45.24 60.184 48 64 48C66.1217 48 68.1566 47.1571 69.6569 45.6568C71.1571 44.1566 72 42.1217 72 40C72 31.5131 68.6286 23.3737 62.6274 17.3726C56.6263 11.3714 48.4869 8 40 8ZM40 20C34.6957 20 29.6086 22.1071 25.8579 25.8579C22.1071 29.6086 20 34.6957 20 40C20 53.14 25.756 64.932 34.896 73C35.6917 73.7017 36.1759 74.6908 36.2423 75.7497C36.3087 76.8085 35.9518 77.8503 35.25 78.646C34.5482 79.4416 33.5592 79.9259 32.5003 79.9923C31.4415 80.0587 30.3997 79.7017 29.604 79C24.0651 74.1251 19.6297 68.1247 16.594 61.3994C13.5583 54.6741 11.9922 47.3787 12 40C12 32.5739 14.95 25.452 20.201 20.201C25.452 14.95 32.5739 12 40 12C47.4261 12 54.548 14.95 59.799 20.201C65.05 25.452 68 32.5739 68 40C68 41.0609 67.5786 42.0783 66.8284 42.8284C66.0783 43.5786 65.0609 44 64 44C62.9391 44 61.9217 43.5786 61.1716 42.8284C60.4214 42.0783 60 41.0609 60 40C60 34.6957 57.8929 29.6086 54.1421 25.8579C50.3914 22.1071 45.3043 20 40 20ZM40 36C41.0609 36 42.0783 36.4214 42.8284 37.1716C43.5786 37.9217 44 38.9391 44 40C44 42.9088 44.6344 45.7825 45.8591 48.4209C47.0838 51.0593 48.8693 53.3988 51.091 55.2762C53.3127 57.1537 55.9173 58.5239 58.723 59.2914C61.5286 60.0589 64.468 60.2052 67.336 59.72C68.3825 59.5439 69.4562 59.7907 70.3207 60.4062C71.1853 61.0217 71.7699 61.9554 71.946 63.002C72.1221 64.0485 71.8753 65.1222 71.2598 65.9867C70.6443 66.8513 69.7105 67.4359 68.664 67.612C64.6489 68.2903 60.5342 68.0846 56.6067 67.0095C52.6793 65.9343 49.0336 64.0154 45.9238 61.3866C42.8141 58.7578 40.3151 55.4824 38.6012 51.7887C36.8872 48.095 35.9995 44.072 36 40C36 38.9391 36.4214 37.9217 37.1716 37.1716C37.9217 36.4214 38.9391 36 40 36Z" fill="#686868"/>
</svg>
