<svg width="28" height="36" viewBox="0 0 28 36" fill="none" xmlns="http://www.w3.org/2000/svg">
<path d="M13.6667 27.3333C12.7605 27.3333 11.8915 26.9734 11.2507 26.3326C10.61 25.6919 10.25 24.8228 10.25 23.9167C10.25 22.0204 11.7704 20.5 13.6667 20.5C14.5728 20.5 15.4419 20.86 16.0826 21.5007C16.7234 22.1415 17.0833 23.0105 17.0833 23.9167C17.0833 24.8228 16.7234 25.6919 16.0826 26.3326C15.4419 26.9734 14.5728 27.3333 13.6667 27.3333ZM23.9167 32.4583V15.375H3.41667V32.4583H23.9167ZM23.9167 11.9583C24.8228 11.9583 25.6919 12.3183 26.3326 12.9591C26.9734 13.5998 27.3333 14.4688 27.3333 15.375V32.4583C27.3333 33.3645 26.9734 34.2335 26.3326 34.8743C25.6919 35.515 24.8228 35.875 23.9167 35.875H3.41667C2.51051 35.875 1.64147 35.515 1.00072 34.8743C0.359969 34.2335 0 33.3645 0 32.4583V15.375C0 13.4787 1.52042 11.9583 3.41667 11.9583H5.125V8.54167C5.125 6.27628 6.02492 4.10367 7.6268 2.5018C9.22867 0.899923 11.4013 0 13.6667 0C14.7884 0 15.8991 0.220937 16.9354 0.650196C17.9717 1.07945 18.9134 1.70863 19.7065 2.5018C20.4997 3.29496 21.1289 4.23659 21.5581 5.27291C21.9874 6.30923 22.2083 7.41996 22.2083 8.54167V11.9583H23.9167ZM13.6667 3.41667C12.3074 3.41667 11.0039 3.95662 10.0427 4.91774C9.08162 5.87887 8.54167 7.18243 8.54167 8.54167V11.9583H18.7917V8.54167C18.7917 7.18243 18.2517 5.87887 17.2906 4.91774C16.3295 3.95662 15.0259 3.41667 13.6667 3.41667Z" fill="#686868"/>
</svg>
