<svg width="50" height="36" viewBox="0 0 50 36" fill="none" xmlns="http://www.w3.org/2000/svg">
<path d="M50 9.125C50 7.25 48.75 6 46.875 6H3.125C1.25 6 0 7.25 0 9.125V27.875C0 29.75 1.25 31 3.125 31H46.875C48.75 31 50 29.75 50 27.875V9.125ZM46.875 27.875H3.125V9.125H46.875V27.875Z" fill="#686868"/>
<path d="M18.75 18.5C18.75 19.3288 18.4208 20.1237 17.8347 20.7097C17.2487 21.2958 16.4538 21.625 15.625 21.625C14.7962 21.625 14.0013 21.2958 13.4153 20.7097C12.8292 20.1237 12.5 19.3288 12.5 18.5C12.5 17.6712 12.8292 16.8763 13.4153 16.2903C14.0013 15.7042 14.7962 15.375 15.625 15.375C16.4538 15.375 17.2487 15.7042 17.8347 16.2903C18.4208 16.8763 18.75 17.6712 18.75 18.5ZM28.125 18.5C28.125 19.3288 27.7958 20.1237 27.2097 20.7097C26.6237 21.2958 25.8288 21.625 25 21.625C24.1712 21.625 23.3763 21.2958 22.7903 20.7097C22.2042 20.1237 21.875 19.3288 21.875 18.5C21.875 17.6712 22.2042 16.8763 22.7903 16.2903C23.3763 15.7042 24.1712 15.375 25 15.375C25.8288 15.375 26.6237 15.7042 27.2097 16.2903C27.7958 16.8763 28.125 17.6712 28.125 18.5ZM37.5 18.5C37.5 19.3288 37.1708 20.1237 36.5847 20.7097C35.9987 21.2958 35.2038 21.625 34.375 21.625C33.5462 21.625 32.7513 21.2958 32.1653 20.7097C31.5792 20.1237 31.25 19.3288 31.25 18.5C31.25 17.6712 31.5792 16.8763 32.1653 16.2903C32.7513 15.7042 33.5462 15.375 34.375 15.375C35.2038 15.375 35.9987 15.7042 36.5847 16.2903C37.1708 16.8763 37.5 17.6712 37.5 18.5Z" fill="#686868"/>
</svg>
