<svg width="36" height="36" viewBox="0 0 36 36" fill="none" xmlns="http://www.w3.org/2000/svg">
<g clip-path="url(#clip0_328_1504)">
<path fill-rule="evenodd" clip-rule="evenodd" d="M18 6C14.8174 6 11.7652 7.26428 9.51472 9.51472C7.26429 11.7652 6.00001 14.8174 6.00001 18C6.00001 20.457 6.42001 22.812 7.19401 25.0005C7.26616 25.1876 7.30005 25.3873 7.29367 25.5878C7.2873 25.7883 7.24078 25.9854 7.15689 26.1676C7.07299 26.3498 6.95341 26.5133 6.80522 26.6484C6.65703 26.7836 6.48324 26.8876 6.29413 26.9544C6.10502 27.0213 5.90444 27.0495 5.70424 27.0374C5.50403 27.0253 5.30828 26.9733 5.12857 26.8842C4.94885 26.7952 4.78881 26.671 4.65791 26.5191C4.52702 26.3671 4.42793 26.1904 4.36651 25.9995C3.46021 23.4299 2.99811 20.7247 3.00001 18C3.00001 9.7155 9.71551 3 18 3C26.2845 3 33 9.7155 33 18C33 19.5913 32.3679 21.1174 31.2426 22.2426C30.1174 23.3679 28.5913 24 27 24C25.597 24.0002 24.2394 23.5025 23.169 22.5955C22.0985 21.6885 21.3847 20.431 21.1545 19.047L20.8875 17.445C20.7738 16.7615 20.4211 16.1405 19.8923 15.6928C19.3635 15.245 18.6929 14.9995 18 15C17.2044 15 16.4413 15.3161 15.8787 15.8787C15.3161 16.4413 15 17.2044 15 18C14.9991 20.4906 15.7732 22.9197 17.2149 24.9505C18.6567 26.9814 20.6945 28.5134 23.046 29.334C23.2351 29.3964 23.4099 29.4958 23.5602 29.6265C23.7105 29.7572 23.8333 29.9164 23.9213 30.095C24.0094 30.2737 24.0611 30.468 24.0732 30.6668C24.0854 30.8656 24.0579 31.0648 23.9922 31.2528C23.9266 31.4408 23.8242 31.6139 23.691 31.7619C23.5578 31.9099 23.3964 32.03 23.2163 32.115C23.0362 32.2 22.841 32.2483 22.642 32.257C22.4431 32.2658 22.2444 32.2348 22.0575 32.166C19.1184 31.1403 16.5712 29.2256 14.7691 26.6873C12.967 24.149 11.9992 21.1129 12 18C12 16.4087 12.6321 14.8826 13.7574 13.7574C14.8826 12.6321 16.4087 12 18 12C19.403 11.9998 20.7606 12.4975 21.8311 13.4045C22.9015 14.3115 23.6153 15.569 23.8455 16.953L24.1125 18.555C24.348 19.965 25.569 21 27 21C27.7957 21 28.5587 20.6839 29.1213 20.1213C29.6839 19.5587 30 18.7957 30 18C30 14.8174 28.7357 11.7652 26.4853 9.51472C24.2349 7.26428 21.1826 6 18 6ZM18 10.5C16.0109 10.5 14.1032 11.2902 12.6967 12.6967C11.2902 14.1032 10.5 16.0109 10.5 18C10.5 22.9275 12.6585 27.3495 16.086 30.375C16.3844 30.6382 16.566 31.0091 16.5909 31.4061C16.6158 31.8032 16.4819 32.1939 16.2188 32.4923C15.9556 32.7906 15.5847 32.9722 15.1876 32.9971C14.7906 33.022 14.3999 32.8882 14.1015 32.625C12.0244 30.7969 10.3611 28.5468 9.22276 26.0248C8.08438 23.5028 7.49706 20.767 7.50001 18C7.50001 15.2152 8.60625 12.5445 10.5754 10.5754C12.5445 8.60625 15.2152 7.5 18 7.5C20.7848 7.5 23.4555 8.60625 25.4246 10.5754C27.3938 12.5445 28.5 15.2152 28.5 18C28.5 18.3978 28.342 18.7794 28.0607 19.0607C27.7794 19.342 27.3978 19.5 27 19.5C26.6022 19.5 26.2206 19.342 25.9393 19.0607C25.658 18.7794 25.5 18.3978 25.5 18C25.5 16.0109 24.7098 14.1032 23.3033 12.6967C21.8968 11.2902 19.9891 10.5 18 10.5ZM18 16.5C18.3978 16.5 18.7794 16.658 19.0607 16.9393C19.342 17.2206 19.5 17.6022 19.5 18C19.5 19.0908 19.7379 20.1685 20.1972 21.1578C20.6564 22.1472 21.326 23.0245 22.1591 23.7286C22.9923 24.4326 23.969 24.9465 25.0211 25.2343C26.0732 25.5221 27.1755 25.5769 28.251 25.395C28.6435 25.329 29.0461 25.4215 29.3703 25.6523C29.6945 25.8832 29.9137 26.2333 29.9798 26.6258C30.0458 27.0182 29.9532 27.4208 29.7224 27.745C29.4916 28.0692 29.1415 28.2885 28.749 28.3545C27.2433 28.6089 25.7003 28.5317 24.2275 28.1286C22.7547 27.7254 21.3876 27.0058 20.2214 26.02C19.0553 25.0342 18.1182 23.8059 17.4754 22.4208C16.8327 21.0356 16.4998 19.527 16.5 18C16.5 17.6022 16.658 17.2206 16.9393 16.9393C17.2207 16.658 17.6022 16.5 18 16.5Z" fill="#686868"/>
</g>
<defs>
<clipPath id="clip0_328_1504">
<rect width="36" height="36" fill="white"/>
</clipPath>
</defs>
</svg>
